<?xml version="1.0" encoding="UTF-8" standalone="no"?>
<!-- Generator: Adobe Illustrator 23.0.5, SVG Export Plug-In . SVG Version: 6.00 Build 0)  -->

<svg
   version="1.1"
   id="Layer_1"
   x="0px"
   y="0px"
   viewBox="0 0 282.17999 26.360001"
   xml:space="preserve"
   sodipodi:docname="315949ff623122869508aabcd20d62f0.svg"
   width="282.17999"
   height="26.360001"
   xmlns:inkscape="http://www.inkscape.org/namespaces/inkscape"
   xmlns:sodipodi="http://sodipodi.sourceforge.net/DTD/sodipodi-0.dtd"
   xmlns="http://www.w3.org/2000/svg"
   xmlns:svg="http://www.w3.org/2000/svg"><defs
   id="defs39" /><sodipodi:namedview
   id="namedview37"
   pagecolor="#ffffff"
   bordercolor="#666666"
   borderopacity="1.0"
   inkscape:pageshadow="2"
   inkscape:pageopacity="0.0"
   inkscape:pagecheckerboard="0" />
<style
   type="text/css"
   id="style2">
	.st0{fill-rule:evenodd;clip-rule:evenodd;fill:#4066B0;}
	.st1{fill:#4066B0;}
	.st2{fill:#40C4E0;}
	.st3{fill:#4550A2;}
</style>
<g
   id="g12"
   transform="translate(-5.43,-8.13)">
	<path
   class="st0"
   d="m 198.53,8.47 h 16.24 V 9.3 h -16.24 z m 0.57,1.55 h 15.09 v 1.25 H 199.1 Z"
   id="path4" />
	<path
   class="st0"
   d="m 200.18,25.33 5.36,7.6 c 0.72,0.15 1.48,0.15 2.2,0 l 5.36,-7.6 c -1.76,0 -11.83,0 -12.92,0 z m 5.69,8.07 0.78,1.09 0.78,-1.09 c -0.84,0.11 -1.56,0 -1.56,0 z"
   id="path6" />
	<g
   id="g10">
		<path
   class="st1"
   d="m 202.3,18.51 c -0.61,0 -1.15,-0.13 -1.63,-0.39 -0.48,-0.26 -0.86,-0.64 -1.14,-1.14 -0.28,-0.5 -0.42,-1.11 -0.42,-1.82 0,-0.71 0.14,-1.31 0.42,-1.81 0.28,-0.5 0.66,-0.88 1.14,-1.14 0.48,-0.26 1.03,-0.4 1.63,-0.4 0.61,0 1.15,0.13 1.63,0.4 0.48,0.26 0.86,0.64 1.14,1.14 0.28,0.5 0.42,1.1 0.42,1.81 0,0.71 -0.14,1.32 -0.42,1.82 -0.28,0.5 -0.66,0.88 -1.14,1.14 -0.48,0.26 -1.02,0.39 -1.63,0.39 z m -1.15,5.5 8.21,-12.03 h 2.9 l -8.21,12.03 z m 1.15,-7.36 c 0.19,0 0.37,-0.11 0.52,-0.32 0.15,-0.21 0.23,-0.6 0.23,-1.18 0,-0.57 -0.08,-0.96 -0.23,-1.18 -0.15,-0.21 -0.33,-0.32 -0.52,-0.32 -0.18,0 -0.36,0.11 -0.52,0.32 -0.16,0.21 -0.24,0.6 -0.24,1.18 0,0.57 0.08,0.97 0.24,1.18 0.17,0.22 0.34,0.32 0.52,0.32 z m 8.82,7.53 c -0.61,0 -1.15,-0.13 -1.63,-0.39 -0.48,-0.26 -0.86,-0.64 -1.14,-1.14 -0.28,-0.5 -0.42,-1.11 -0.42,-1.82 0,-0.71 0.14,-1.31 0.42,-1.81 0.28,-0.5 0.66,-0.88 1.14,-1.14 0.48,-0.26 1.03,-0.4 1.63,-0.4 0.61,0 1.15,0.13 1.63,0.4 0.48,0.26 0.86,0.64 1.14,1.14 0.28,0.5 0.42,1.1 0.42,1.81 0,0.71 -0.14,1.32 -0.42,1.82 -0.28,0.5 -0.66,0.88 -1.14,1.14 -0.48,0.26 -1.03,0.39 -1.63,0.39 z m 0,-1.86 c 0.19,0 0.37,-0.11 0.52,-0.32 0.15,-0.21 0.23,-0.6 0.23,-1.18 0,-0.57 -0.08,-0.96 -0.23,-1.18 -0.15,-0.21 -0.33,-0.32 -0.52,-0.32 -0.18,0 -0.36,0.11 -0.52,0.32 -0.16,0.21 -0.24,0.6 -0.24,1.18 0,0.57 0.08,0.97 0.24,1.18 0.16,0.22 0.33,0.32 0.52,0.32 z"
   id="path8" />
	</g>
</g>
<path
   class="st2"
   d="M 0,21.64 V 1.42 c 0,-0.5 0.4,-0.9 0.9,-0.9 h 5.49 c 0.5,0 0.9,0.4 0.9,0.9 v 20.22 c 0,0.5 -0.4,0.9 -0.9,0.9 H 0.9 C 0.4,22.54 0,22.14 0,21.64 Z m 6.53,-6 -0.28,-5.59 C 6.24,9.81 6.32,9.58 6.48,9.4 l 7.79,-8.58 c 0.17,-0.19 0.41,-0.3 0.67,-0.3 h 5.65 c 0.78,0 1.19,0.93 0.67,1.51 L 13.32,10.78 9.2,15 8.11,16.21 C 7.56,16.79 6.57,16.44 6.53,15.64 Z M 14.2,22.18 8.45,14.59 C 8.18,14.24 8.21,13.75 8.51,13.43 L 12.06,9.67 C 12.44,9.26 13.1,9.3 13.44,9.75 l 8.53,11.36 c 0.45,0.59 0.02,1.44 -0.72,1.44 H 14.92 C 14.64,22.54 14.37,22.41 14.2,22.18 Z"
   id="path14" />
<path
   class="st2"
   d="M 21.13,21.28 29.97,1.06 C 30.11,0.73 30.44,0.52 30.8,0.52 h 6.12 c 0.36,0 0.68,0.21 0.83,0.54 l 8.82,20.22 c 0.26,0.6 -0.18,1.26 -0.83,1.26 h -5.67 c -0.37,0 -0.71,-0.23 -0.84,-0.58 L 32.81,5.26 C 32.58,4.67 33.02,4.03 33.65,4.03 h 0.27 c 0.63,0 1.07,0.63 0.84,1.23 l -6.42,16.7 c -0.13,0.35 -0.47,0.58 -0.84,0.58 h -5.55 c -0.65,0 -1.08,-0.67 -0.82,-1.26 z m 5.59,-3.78 1.25,-3.54 c 0.13,-0.36 0.47,-0.6 0.85,-0.6 h 8.85 c 0.38,0 0.72,0.24 0.85,0.6 l 1.25,3.54 c 0.21,0.59 -0.23,1.2 -0.85,1.2 H 27.57 c -0.62,0 -1.05,-0.61 -0.85,-1.2 z"
   id="path16" />
<path
   class="st2"
   d="M 48.32,21.64 V 1.42 c 0,-0.5 0.4,-0.9 0.9,-0.9 h 9.7 c 2.06,0 3.83,0.34 5.33,1.01 1.5,0.67 2.66,1.63 3.48,2.88 0.82,1.25 1.23,2.72 1.23,4.42 0,1.7 -0.41,3.16 -1.23,4.39 -0.82,1.23 -1.98,2.17 -3.48,2.82 -1.5,0.65 -3.28,0.98 -5.33,0.98 h -4.18 c -0.82,0 -1.22,-1.01 -0.61,-1.56 l 0.1,-0.09 c 0.58,-0.53 1.51,-0.12 1.51,0.66 v 5.63 c 0,0.5 -0.4,0.9 -0.9,0.9 h -5.62 c -0.49,-0.02 -0.9,-0.42 -0.9,-0.92 z M 54.2,13.19 53.95,12.93 C 53.39,12.36 53.79,11.4 54.59,11.4 h 3.86 c 1.03,0 1.79,-0.23 2.28,-0.69 0.49,-0.46 0.74,-1.09 0.74,-1.89 0,-0.8 -0.25,-1.43 -0.74,-1.89 C 60.24,6.47 59.48,6.24 58.45,6.24 h -3.86 c -0.8,0 -1.2,-0.96 -0.64,-1.53 L 54.2,4.45 c 0.57,-0.58 1.55,-0.18 1.55,0.63 v 7.48 c 0,0.81 -0.98,1.21 -1.55,0.63 z m 7.04,8.95 -4.19,-6.22 c -0.4,-0.6 0.03,-1.41 0.75,-1.41 h 5.69 c 0.3,0 0.58,0.15 0.75,0.39 l 4.24,6.22 c 0.41,0.6 -0.02,1.41 -0.75,1.41 h -5.74 c -0.3,0.01 -0.59,-0.14 -0.75,-0.39 z"
   id="path18" />
<path
   class="st3"
   d="m 89.41,23.04 c -1.85,0 -3.63,-0.21 -5.35,-0.63 -1.35,-0.33 -2.52,-0.74 -3.49,-1.22 -0.43,-0.21 -0.61,-0.73 -0.42,-1.17 l 1.66,-3.77 c 0.21,-0.47 0.76,-0.67 1.21,-0.45 0.83,0.41 1.72,0.75 2.69,1.02 1.29,0.37 2.54,0.55 3.76,0.55 0.71,0 1.27,-0.05 1.68,-0.14 0.41,-0.09 0.71,-0.23 0.9,-0.41 0.19,-0.18 0.28,-0.39 0.28,-0.65 0,-0.4 -0.22,-0.71 -0.66,-0.94 C 91.23,15 90.65,14.81 89.92,14.65 89.2,14.49 88.4,14.32 87.54,14.15 86.68,13.97 85.81,13.74 84.94,13.44 84.07,13.15 83.27,12.76 82.55,12.28 81.83,11.8 81.24,11.16 80.8,10.38 80.36,9.59 80.14,8.61 80.14,7.44 c 0,-1.36 0.38,-2.61 1.15,-3.73 0.77,-1.12 1.91,-2.02 3.43,-2.69 1.52,-0.67 3.41,-1.01 5.68,-1.01 1.49,0 2.96,0.16 4.4,0.47 1.13,0.25 2.18,0.6 3.13,1.05 0.44,0.21 0.64,0.72 0.45,1.17 L 96.83,6.44 C 96.64,6.91 96.1,7.12 95.64,6.92 94.84,6.57 94.07,6.29 93.31,6.09 92.29,5.82 91.3,5.68 90.34,5.68 c -0.71,0 -1.28,0.06 -1.7,0.19 -0.42,0.13 -0.72,0.29 -0.9,0.5 -0.18,0.21 -0.27,0.44 -0.27,0.69 0,0.38 0.22,0.68 0.66,0.9 0.44,0.22 1.02,0.4 1.75,0.55 0.72,0.15 1.52,0.3 2.39,0.47 0.87,0.17 1.74,0.4 2.6,0.69 0.86,0.29 1.65,0.68 2.38,1.16 0.72,0.48 1.31,1.11 1.75,1.89 0.44,0.78 0.66,1.74 0.66,2.89 0,1.34 -0.38,2.57 -1.15,3.7 -0.77,1.12 -1.9,2.02 -3.41,2.71 -1.5,0.68 -3.4,1.02 -5.69,1.02 z"
   id="path20" />
<path
   class="st3"
   d="m 113.42,23.04 c -1.78,0 -3.43,-0.28 -4.96,-0.85 -1.52,-0.57 -2.84,-1.37 -3.95,-2.41 -1.11,-1.04 -1.98,-2.26 -2.6,-3.67 -0.62,-1.4 -0.93,-2.94 -0.93,-4.59 0,-1.68 0.31,-3.21 0.93,-4.61 0.62,-1.39 1.48,-2.61 2.6,-3.65 1.11,-1.04 2.43,-1.84 3.95,-2.41 1.52,-0.57 3.17,-0.85 4.96,-0.85 1.8,0 3.46,0.28 4.97,0.85 1.51,0.57 2.82,1.37 3.93,2.41 1.11,1.04 1.98,2.25 2.6,3.65 0.62,1.4 0.93,2.93 0.93,4.61 0,1.66 -0.31,3.19 -0.93,4.59 -0.62,1.41 -1.48,2.63 -2.6,3.67 -1.11,1.04 -2.42,1.84 -3.93,2.41 -1.51,0.57 -3.17,0.85 -4.97,0.85 z m 0,-6.01 c 0.69,0 1.34,-0.13 1.94,-0.38 0.6,-0.25 1.12,-0.61 1.57,-1.09 0.45,-0.47 0.8,-1.05 1.05,-1.73 0.25,-0.68 0.38,-1.45 0.38,-2.31 0,-0.86 -0.13,-1.63 -0.38,-2.31 -0.25,-0.68 -0.6,-1.26 -1.05,-1.73 -0.45,-0.47 -0.98,-0.83 -1.57,-1.09 -0.6,-0.25 -1.24,-0.38 -1.94,-0.38 -0.69,0 -1.34,0.13 -1.93,0.38 -0.6,0.25 -1.12,0.61 -1.57,1.09 -0.45,0.47 -0.8,1.05 -1.05,1.73 -0.25,0.68 -0.38,1.45 -0.38,2.31 0,0.86 0.13,1.63 0.38,2.31 0.25,0.68 0.6,1.26 1.05,1.73 0.45,0.47 0.98,0.83 1.57,1.09 0.59,0.26 1.23,0.38 1.93,0.38 z"
   id="path22" />
<path
   class="st3"
   d="M 128.55,21.64 V 1.42 c 0,-0.5 0.4,-0.9 0.9,-0.9 h 5.62 c 0.5,0 0.9,0.4 0.9,0.9 v 14.46 c 0,0.5 0.4,0.9 0.9,0.9 h 8.14 c 0.5,0 0.9,0.4 0.9,0.9 v 3.95 c 0,0.5 -0.4,0.9 -0.9,0.9 h -15.56 c -0.5,0.01 -0.9,-0.39 -0.9,-0.89 z"
   id="path24" />
<path
   class="st3"
   d="m 158.34,23.04 c -3.38,0 -6.01,-0.91 -7.9,-2.74 -1.89,-1.82 -2.83,-4.38 -2.83,-7.68 V 1.42 c 0,-0.5 0.4,-0.9 0.9,-0.9 h 5.62 c 0.5,0 0.9,0.4 0.9,0.9 v 10.99 c 0,1.68 0.3,2.87 0.91,3.57 0.61,0.7 1.43,1.05 2.45,1.05 1.05,0 1.87,-0.35 2.47,-1.05 0.6,-0.7 0.9,-1.89 0.9,-3.57 V 1.42 c 0,-0.5 0.4,-0.9 0.9,-0.9 h 5.5 c 0.5,0 0.9,0.4 0.9,0.9 v 11.21 c 0,3.29 -0.94,5.85 -2.83,7.68 -1.88,1.82 -4.51,2.73 -7.89,2.73 z"
   id="path26" />
<path
   class="st1"
   d="M 176.94,21.64 V 7.18 c 0,-0.5 -0.4,-0.9 -0.9,-0.9 h -4.65 c -0.5,0 -0.9,-0.4 -0.9,-0.9 V 1.42 c 0,-0.5 0.4,-0.9 0.9,-0.9 h 18.52 c 0.5,0 0.9,0.4 0.9,0.9 v 3.95 c 0,0.5 -0.4,0.9 -0.9,0.9 h -4.65 c -0.5,0 -0.9,0.4 -0.9,0.9 v 14.46 c 0,0.5 -0.4,0.9 -0.9,0.9 h -5.62 c -0.5,0.01 -0.9,-0.39 -0.9,-0.89 z"
   id="path28" />
<path
   class="st1"
   d="m 223.29,23.04 c -1.78,0 -3.43,-0.28 -4.96,-0.85 -1.52,-0.57 -2.84,-1.37 -3.95,-2.41 -1.11,-1.04 -1.98,-2.26 -2.6,-3.67 -0.62,-1.4 -0.93,-2.94 -0.93,-4.59 0,-1.68 0.31,-3.21 0.93,-4.61 0.62,-1.39 1.48,-2.61 2.6,-3.65 1.11,-1.04 2.43,-1.84 3.95,-2.41 1.52,-0.57 3.17,-0.85 4.96,-0.85 1.8,0 3.46,0.28 4.97,0.85 1.51,0.57 2.82,1.37 3.93,2.41 1.11,1.04 1.98,2.25 2.6,3.65 0.62,1.4 0.93,2.93 0.93,4.61 0,1.66 -0.31,3.19 -0.93,4.59 -0.62,1.41 -1.48,2.63 -2.6,3.67 -1.11,1.04 -2.42,1.84 -3.93,2.41 -1.51,0.57 -3.17,0.85 -4.97,0.85 z m 0,-6.01 c 0.69,0 1.34,-0.13 1.94,-0.38 0.6,-0.25 1.12,-0.61 1.57,-1.09 0.45,-0.47 0.8,-1.05 1.05,-1.73 0.25,-0.68 0.38,-1.45 0.38,-2.31 0,-0.86 -0.13,-1.63 -0.38,-2.31 -0.25,-0.68 -0.6,-1.26 -1.05,-1.73 -0.45,-0.47 -0.98,-0.83 -1.57,-1.09 -0.6,-0.25 -1.24,-0.38 -1.94,-0.38 -0.69,0 -1.34,0.13 -1.94,0.38 -0.6,0.25 -1.12,0.61 -1.57,1.09 -0.45,0.47 -0.8,1.05 -1.05,1.73 -0.25,0.68 -0.38,1.45 -0.38,2.31 0,0.86 0.13,1.63 0.38,2.31 0.25,0.68 0.6,1.26 1.05,1.73 0.45,0.47 0.98,0.83 1.57,1.09 0.6,0.26 1.25,0.38 1.94,0.38 z"
   id="path30" />
<path
   class="st1"
   d="M 238.42,21.64 V 1.42 c 0,-0.5 0.4,-0.9 0.9,-0.9 h 4.78 c 0.27,0 0.52,0.12 0.69,0.32 l 9.69,11.6 c 0.49,0.59 0.07,1.48 -0.69,1.48 v 0 c -0.5,0 -0.9,-0.4 -0.9,-0.9 V 1.42 c 0,-0.5 0.4,-0.9 0.9,-0.9 h 5.43 c 0.5,0 0.9,0.4 0.9,0.9 v 20.22 c 0,0.5 -0.4,0.9 -0.9,0.9 h -4.78 c -0.27,0 -0.52,-0.12 -0.69,-0.32 l -9.69,-11.6 c -0.49,-0.59 -0.07,-1.48 0.69,-1.48 v 0 c 0.5,0 0.9,0.4 0.9,0.9 v 11.6 c 0,0.5 -0.4,0.9 -0.9,0.9 h -5.43 c -0.5,0 -0.9,-0.4 -0.9,-0.9 z"
   id="path32" />
<path
   class="st1"
   d="m 271.93,23.04 c -1.85,0 -3.63,-0.21 -5.35,-0.63 -1.35,-0.33 -2.52,-0.74 -3.49,-1.22 -0.43,-0.21 -0.61,-0.73 -0.42,-1.17 l 1.66,-3.77 c 0.21,-0.47 0.76,-0.67 1.21,-0.45 0.83,0.41 1.72,0.75 2.69,1.02 1.29,0.37 2.54,0.55 3.76,0.55 0.71,0 1.27,-0.05 1.68,-0.14 0.41,-0.09 0.71,-0.23 0.9,-0.41 0.19,-0.18 0.28,-0.39 0.28,-0.65 0,-0.4 -0.22,-0.71 -0.66,-0.94 -0.44,-0.23 -1.02,-0.42 -1.75,-0.58 -0.72,-0.16 -1.52,-0.33 -2.38,-0.5 -0.86,-0.18 -1.73,-0.41 -2.6,-0.71 -0.87,-0.29 -1.67,-0.68 -2.39,-1.16 -0.72,-0.48 -1.31,-1.12 -1.75,-1.9 -0.44,-0.79 -0.66,-1.77 -0.66,-2.94 0,-1.36 0.38,-2.61 1.15,-3.73 0.77,-1.12 1.91,-2.02 3.43,-2.69 1.52,-0.67 3.41,-1.01 5.68,-1.01 1.49,0 2.96,0.16 4.4,0.47 1.13,0.25 2.18,0.6 3.13,1.05 0.44,0.21 0.64,0.72 0.45,1.17 l -1.55,3.74 c -0.19,0.47 -0.73,0.68 -1.19,0.48 -0.8,-0.35 -1.57,-0.63 -2.33,-0.83 -1.02,-0.27 -2.01,-0.41 -2.97,-0.41 -0.71,0 -1.28,0.06 -1.7,0.19 -0.42,0.13 -0.72,0.29 -0.9,0.5 -0.18,0.21 -0.27,0.44 -0.27,0.69 0,0.38 0.22,0.68 0.66,0.9 0.44,0.22 1.02,0.4 1.75,0.55 0.72,0.15 1.52,0.3 2.39,0.47 0.87,0.17 1.74,0.4 2.6,0.69 0.86,0.29 1.65,0.68 2.38,1.16 0.72,0.48 1.31,1.11 1.75,1.89 0.44,0.78 0.66,1.74 0.66,2.89 0,1.34 -0.38,2.57 -1.15,3.7 -0.77,1.12 -1.9,2.02 -3.41,2.71 -1.51,0.68 -3.41,1.02 -5.69,1.02 z"
   id="path34" />
</svg>
